<svg xmlns="http://www.w3.org/2000/svg" xmlns:xlink="http://www.w3.org/1999/xlink" width="44" height="19" viewBox="0 0 44 19">
    <defs>
        <path id="a" d="M0 0h44v44H0z"/>
    </defs>
    <g fill="none" fill-rule="evenodd" transform="translate(0 -13)">
        <mask id="b" fill="#fff">
            <use xlink:href="#a"/>
        </mask>
        <g mask="url(#b)">
            <path fill="#4B4B4B" fill-rule="nonzero" d="M0 21.537v5.958c0 .49.403.888.9.888h4.103a4.536 4.536 0 0 0 1.293 2.285 4.646 4.646 0 0 0 3.235 1.297c1.214 0 2.363-.461 3.233-1.298a4.53 4.53 0 0 0 1.293-2.284h16.128a4.545 4.545 0 0 0 1.293 2.285 4.65 4.65 0 0 0 3.234 1.297 4.65 4.65 0 0 0 3.236-1.297 4.542 4.542 0 0 0 1.292-2.285h3.86c.497 0 .9-.398.9-.888V24.32c0-1.317-.48-2.592-1.353-3.588a5.578 5.578 0 0 0-3.402-1.841l-5.45-.785-7.596-3.812a11.921 11.921 0 0 0-5.323-1.26h-5.139c-1.504 0-2.974.28-4.37.833l-8.383 3.316C1.172 17.9 0 19.61 0 21.537zm1.8 5.07v-2.65h.41c1.647 0 2.986-1.323 2.986-2.948v-1.156H33.45l3.784.544c.314 2.439 2.417 4.332 4.966 4.355v1.855h-2.919c-.377-2.153-2.28-3.797-4.569-3.797-2.287 0-4.192 1.644-4.569 3.797H14.1c-.377-2.153-2.281-3.797-4.568-3.797-2.289 0-4.192 1.644-4.57 3.797H1.8zm0-4.427v-.643c0-.62.197-1.203.541-1.684h1.056v1.156A1.18 1.18 0 0 1 2.21 22.18H1.8zm8.648-4.104H5.565l6.472-2.56c.186-.073.373-.14.561-.203l-2.15 2.763zm-3.756 9.311c0-1.547 1.27-2.8 2.838-2.8 1.567 0 2.839 1.253 2.839 2.8s-1.272 2.801-2.84 2.801c-1.567 0-2.837-1.254-2.837-2.8zm6.026-9.31l2.53-3.254c.163-.008.326-.011.49-.011h4.294v3.264h-7.314zm9.114 0v-3.218c1.234.118 2.446.464 3.552 1.02l4.38 2.197h-7.932zm10.043 9.31c0-1.547 1.27-2.8 2.838-2.8s2.838 1.253 2.838 2.8-1.27 2.801-2.838 2.801c-1.567 0-2.838-1.254-2.838-2.8zm10.06-4.425a3.253 3.253 0 0 1-2.81-2.289 3.77 3.77 0 0 1 2.81 2.289z"/>
            <path fill="#DEDEDE" fill-rule="nonzero" d="M1.8 23.956v2.65h3.162c.377-2.152 2.28-3.796 4.569-3.796 2.287 0 4.19 1.644 4.568 3.797h16.044c.377-2.153 2.282-3.797 4.57-3.797 2.287 0 4.191 1.644 4.568 3.797h2.92v-1.855c-2.55-.023-4.653-1.916-4.967-4.355l-3.784-.545H10.892 5.195v1.157c0 1.625-1.34 2.947-2.985 2.947H1.8zm16.361-.726c0-.491.403-.888.9-.888h5.968c.497 0 .9.397.9.888 0 .49-.403.888-.9.888H19.06a.894.894 0 0 1-.9-.888z"/>
            <path fill="#FFF" d="M1.8 21.537v.643h.41a1.18 1.18 0 0 0 1.187-1.171v-1.156H2.34a2.884 2.884 0 0 0-.541 1.684z"/>
            <g fill="#FFF">
                <path d="M5.565 18.076h4.883l2.15-2.763c-.188.063-.375.13-.561.203l-6.472 2.56z"/>
                <path fill-rule="nonzero" d="M9.53 24.586c-1.568 0-2.838 1.254-2.838 2.801 0 1.547 1.27 2.801 2.838 2.801 1.567 0 2.839-1.254 2.839-2.8 0-1.548-1.272-2.802-2.84-2.802zm-1.193 2.801c0-.65.534-1.177 1.193-1.177.66 0 1.193.527 1.193 1.177s-.534 1.178-1.193 1.178a1.185 1.185 0 0 1-1.193-1.178z"/>
            </g>
            <path fill="#4B4B4B" d="M9.53 26.21c-.659 0-1.193.527-1.193 1.177s.534 1.178 1.193 1.178c.66 0 1.193-.528 1.193-1.178 0-.65-.534-1.177-1.193-1.177z"/>
            <path fill="#FFF" d="M15.249 14.823l-2.531 3.253h7.314v-3.264h-4.295c-.163 0-.326.003-.488.011z"/>
            <path fill="#4B4B4B" d="M19.061 22.342c-.497 0-.9.397-.9.888 0 .49.403.888.9.888h5.968c.497 0 .9-.398.9-.888a.893.893 0 0 0-.9-.888H19.06z"/>
            <g fill="#FFF">
                <path d="M21.832 14.859v3.217h7.931l-4.379-2.198a10.082 10.082 0 0 0-3.552-1.02z"/>
                <path fill-rule="nonzero" d="M34.713 24.586c-1.567 0-2.838 1.254-2.838 2.801 0 1.547 1.27 2.801 2.838 2.801s2.838-1.254 2.838-2.8c0-1.548-1.27-2.802-2.838-2.802zm-1.193 2.801c0-.65.534-1.177 1.193-1.177s1.192.527 1.192 1.177-.533 1.178-1.192 1.178c-.66 0-1.193-.528-1.193-1.178z"/>
            </g>
            <path fill="#4B4B4B" d="M34.713 26.21c-.66 0-1.193.527-1.193 1.177s.534 1.178 1.193 1.178 1.192-.528 1.192-1.178c0-.65-.533-1.177-1.192-1.177z"/>
            <path fill="#FFF" d="M39.124 20.673a3.253 3.253 0 0 0 2.81 2.289 3.77 3.77 0 0 0-2.81-2.289z"/>
        </g>
    </g>
</svg>
