<svg xmlns="http://www.w3.org/2000/svg" width="40" height="25" viewBox="0 0 40 25">
    <path fill="#FFF" fill-rule="nonzero" d="M38.329 10.352l-6.574-1.08-4.408-7.614A3.347 3.347 0 0 0 24.453 0H12.315a3.32 3.32 0 0 0-2.982 1.818L5.563 9.26l-3.811.47C.752 9.854 0 10.694 0 11.69v7.39c0 1.09.895 1.974 2 1.974h2.053c.33 2.264 2.296 3.945 4.614 3.945s4.283-1.681 4.613-3.945h13.44c.33 2.264 2.295 3.945 4.613 3.945 2.318 0 4.284-1.681 4.614-3.945H38c1.105 0 2-.884 2-1.974v-6.78a1.976 1.976 0 0 0-1.671-1.947zM21.333 3.947h5.8l3.048 5.264h-8.848V3.947zM20 9.211h-9.101l1.594-5.264H20v5.264zM1.333 19.079v-.658h2v-1.316h-2v-5.417c0-.332.25-.612.584-.653l4.166-.514a.666.666 0 0 0 .514-.359l3.929-7.755a1.992 1.992 0 0 1 1.789-1.091h12.138c.716.001 1.378.38 1.733.995l.186.32H12.493c-.587 0-1.104.38-1.272.936l-1.6 5.257c-.126.399-.051.833.2 1.17.25.335.65.533 1.072.532H20v9.21h-6.72c-.33-2.263-2.295-3.945-4.613-3.945-2.318 0-4.284 1.682-4.614 3.946H2a.662.662 0 0 1-.667-.658zm7.334 4.605c-1.841 0-3.334-1.473-3.334-3.29 0-1.816 1.493-3.289 3.334-3.289 1.84 0 3.333 1.473 3.333 3.29-.002 1.816-1.493 3.287-3.333 3.29zm22.666 0c-1.84 0-3.333-1.473-3.333-3.29 0-1.816 1.492-3.289 3.333-3.289 1.841 0 3.334 1.473 3.334 3.29-.003 1.816-1.494 3.287-3.334 3.29zM38 19.737h-2.053c-.33-2.264-2.296-3.946-4.614-3.946s-4.283 1.682-4.613 3.946h-5.387v-9.21h9.946l6.831 1.123a.662.662 0 0 1 .361.192H36c-.736 0-1.333.59-1.333 1.316v1.316c0 .726.597 1.315 1.333 1.315h2.667v1.316h-2v1.316h2v.658a.662.662 0 0 1-.667.658zm.667-6.58v1.317H36v-1.316h2.667z"/>
</svg>
