<svg xmlns="http://www.w3.org/2000/svg" width="40" height="40" viewBox="0 0 40 40">
    <g fill="#4B4B4B" fill-rule="evenodd">
        <path fill-rule="nonzero" d="M38.403 12.214c-2.108-4.916-5.692-8.492-10.65-10.606A19.659 19.659 0 0 0 19.967.01c-2.712 0-5.288.535-7.764 1.597C7.287 3.716 3.687 7.29 1.575 12.214.516 14.682 0 17.266 0 19.978c0 2.712.516 5.318 1.575 7.786 2.112 4.925 5.712 8.52 10.628 10.629a19.456 19.456 0 0 0 7.764 1.596c2.712 0 5.308-.54 7.786-1.596 4.957-2.115 8.541-5.713 10.65-10.629A19.563 19.563 0 0 0 40 19.978c0-2.712-.534-5.288-1.597-7.764zm-3.192 16.6c-1.57 2.692-3.721 4.828-6.43 6.408-2.693 1.57-5.643 2.361-8.813 2.361-2.384 0-4.659-.459-6.824-1.4-2.165-.94-4.035-2.175-5.599-3.739s-2.808-3.451-3.74-5.62c-.927-2.162-1.377-4.462-1.377-6.846 0-3.171.78-6.106 2.34-8.791 1.567-2.695 3.718-4.833 6.408-6.408 2.69-1.575 5.62-2.362 8.791-2.362 3.171 0 6.121.792 8.814 2.362 2.708 1.58 4.855 3.717 6.43 6.408 1.574 2.69 2.361 5.62 2.361 8.791 0 3.171-.782 6.127-2.361 8.836z"/>
        <path d="M21.236 19.803V8.474c0-.677-.591-1.224-1.269-1.224-.634 0-1.203.547-1.203 1.224v11.504c0 .022.044.11.044.175-.044.394.066.722.328.985l6.54 6.538c.437.438 1.246.438 1.683 0 .503-.502.47-1.232 0-1.705l-6.123-6.168z"/>
    </g>
</svg>
