<svg xmlns="http://www.w3.org/2000/svg" xmlns:xlink="http://www.w3.org/1999/xlink" width="44" height="20" viewBox="0 0 44 20">
    <defs>
        <path id="a" d="M0 0h44v44H0z"/>
    </defs>
    <g fill="none" fill-rule="evenodd" transform="translate(0 -12)">
        <mask id="b" fill="#fff">
            <use xlink:href="#a"/>
        </mask>
        <g mask="url(#b)">
            <g transform="translate(0 12)">
                <path fill="#FFF" d="M31.043 5.636l-4.409-2.682A12.686 12.686 0 0 0 19.45.721h-3.117a45.128 45.128 0 0 0-7.713.67L9.92 3.577l21.123 2.06z"/>
                <path fill="#DEDEDE" d="M37.926 6.285l-6.883-.649L9.92 3.576l-1.3-2.185c-.722.126-1.442.262-2.158.422l-1.502.336v1.428L1.451 5.344c-.454.23-.742.698-.742 1.21v5.03c0 .358.141.702.393.956L3.542 15c0-2.366 1.904-4.284 4.252-4.284 2.349 0 4.252 1.918 4.252 4.284h20.55c0-2.366 1.902-4.284 4.25-4.284 2.349 0 4.252 1.918 4.252 4.284h1.417l.709-3.624c-.37-2.735-2.57-4.847-5.298-5.09z"/>
                <path fill="#DEDEDE" d="M10.143 11.43A4.286 4.286 0 0 1 12.046 15h20.55c-.002-1.437.713-2.778 1.902-3.57H10.143z"/>
                <ellipse cx="7.795" cy="15" fill="#DEDEDE" rx="4.252" ry="4.284"/>
                <ellipse cx="36.847" cy="15" fill="#DEDEDE" rx="4.252" ry="4.284"/>
                <ellipse cx="7.795" cy="15" fill="#FFF" rx="1.417" ry="1.428"/>
                <ellipse cx="36.847" cy="15" fill="#FFF" rx="1.417" ry="1.428"/>
                <path fill="#4B4B4B" fill-rule="nonzero" d="M7.795 19.997c2.463-.003 4.55-1.827 4.903-4.283h19.245c.39 2.728 2.9 4.622 5.608 4.23a4.972 4.972 0 0 0 4.2-4.23h.764a.71.71 0 0 0 .695-.577l.709-3.624a.717.717 0 0 0 .004-.252c-.417-3.059-2.88-5.42-5.934-5.685l-6.75-.653-4.206-2.56A13.342 13.342 0 0 0 19.451.007h-3.117A46.027 46.027 0 0 0 8.5.688c-.84.143-1.535.28-2.19.428l-1.502.337a.713.713 0 0 0-.557.696v.986L1.134 4.706A2.055 2.055 0 0 0 0 6.554v5.03a2.061 2.061 0 0 0 .6 1.46l2.25 2.267c.163 2.631 2.328 4.683 4.945 4.686zm0-1.428c-1.957 0-3.543-1.598-3.543-3.57 0-1.97 1.586-3.569 3.543-3.569 1.956 0 3.542 1.598 3.542 3.57-.002 1.97-1.587 3.567-3.542 3.57zm29.052 0c-1.957 0-3.543-1.598-3.543-3.57 0-1.97 1.586-3.569 3.543-3.569 1.956 0 3.543 1.598 3.543 3.57-.003 1.97-1.588 3.567-3.543 3.57zM37.86 6.996h.007c.868.071 1.704.369 2.424.864h-.611v1.428h1.984a5.58 5.58 0 0 1 .838 2.08l-.57 2.918h-.176c-.008-.055-.022-.109-.032-.163-.012-.068-.023-.135-.038-.201a3.52 3.52 0 0 0-.07-.271c-.018-.062-.034-.125-.054-.186a4.807 4.807 0 0 0-.101-.278c-.02-.053-.04-.107-.062-.16a4.855 4.855 0 0 0-.149-.311c-.018-.035-.033-.072-.052-.107a4.848 4.848 0 0 0-.24-.396c-.014-.023-.032-.044-.048-.067a3.628 3.628 0 0 0-.225-.303c-.033-.04-.071-.078-.104-.118a4.67 4.67 0 0 0-.202-.224c-.041-.043-.085-.083-.129-.124a5.185 5.185 0 0 0-.206-.19 7.034 7.034 0 0 0-.36-.28c-.052-.038-.106-.071-.16-.108-.075-.049-.15-.095-.227-.143a5.782 5.782 0 0 0-.413-.212l-.181-.08a4.558 4.558 0 0 0-.257-.094c-.06-.021-.12-.043-.183-.062-.091-.027-.184-.049-.277-.071-.06-.014-.12-.03-.18-.042-.105-.02-.213-.035-.317-.05-.052-.006-.103-.016-.156-.02a4.966 4.966 0 0 0-.972.003c-.054.004-.105.014-.157.02a5.084 5.084 0 0 0-.316.05c-.061.012-.12.028-.18.042a5.883 5.883 0 0 0-.278.071c-.062.019-.123.04-.183.062-.087.03-.173.06-.257.095-.06.024-.12.052-.18.079a4.955 4.955 0 0 0-.414.212 8.02 8.02 0 0 0-.388.25 7.007 7.007 0 0 0-.36.282c-.07.06-.141.125-.205.189-.044.041-.088.081-.13.124-.07.072-.135.147-.201.224-.034.04-.071.077-.104.118-.08.099-.155.201-.227.306l-.046.063a5.21 5.21 0 0 0-.24.397c-.019.034-.034.072-.052.107a4.78 4.78 0 0 0-.15.31c-.022.054-.04.108-.06.16-.037.093-.072.184-.102.278-.02.062-.035.124-.053.186-.025.09-.05.18-.071.272-.014.066-.026.133-.038.2-.01.054-.023.108-.03.163H20.45l-.32-2.141H30.47v-1.431H19.92l-.822-5.527 11.88 1.158 6.884.649zM19.45 1.435c2.434 0 4.812.742 6.82 2.13l1.71 1.041-9.1-.88-.342-2.291h.912zm-3.118 0h.772l.32 2.15-7.078-.684-.579-.971a44.428 44.428 0 0 1 6.565-.495zM1.417 7.86h2.835V6.432H1.434a.629.629 0 0 1 .334-.449L5.277 4.22a.714.714 0 0 0 .392-.642V2.72l.947-.214c.505-.113 1.036-.22 1.646-.33l1.051 1.765c.116.193.315.32.539.342l7.792.764.842 5.669h-5.023v1.428h5.235l.32 2.142h-6.314c-.007-.055-.02-.109-.03-.163-.013-.068-.024-.135-.039-.201a3.52 3.52 0 0 0-.07-.271c-.019-.062-.034-.125-.054-.186a4.807 4.807 0 0 0-.101-.278c-.02-.053-.04-.107-.062-.16a4.855 4.855 0 0 0-.149-.311c-.018-.035-.033-.072-.052-.107a4.848 4.848 0 0 0-.24-.396c-.015-.023-.032-.044-.049-.067a3.628 3.628 0 0 0-.224-.303c-.033-.04-.071-.078-.104-.118a4.67 4.67 0 0 0-.202-.224c-.041-.042-.085-.082-.129-.124-.07-.064-.135-.128-.206-.19a7.034 7.034 0 0 0-.36-.28c-.052-.037-.106-.071-.16-.108-.071-.049-.15-.095-.227-.143a5.782 5.782 0 0 0-.413-.212l-.181-.08a4.558 4.558 0 0 0-.257-.094c-.06-.021-.12-.043-.183-.062-.092-.027-.184-.049-.277-.071-.06-.014-.12-.03-.18-.042-.105-.02-.213-.035-.317-.05-.052-.006-.103-.016-.156-.02a4.83 4.83 0 0 0-1.217.039c-.049.006-.098.012-.146.02a4.93 4.93 0 0 0-.67.17c-.04.013-.078.029-.117.043-.2.072-.396.156-.585.253-.025.014-.053.025-.079.039-.07.04-.141.084-.212.127H1.417V7.86zm2.313 4.284a4.968 4.968 0 0 0-.346.579l-.06.124c-.101.21-.188.427-.26.65v.008l-1.353-1.361H3.73z"/>
                <path fill="#4B4B4B" fill-rule="nonzero" d="M7.795 12.858A2.134 2.134 0 0 0 5.669 15c0 1.183.951 2.141 2.126 2.141A2.134 2.134 0 0 0 9.92 15a2.134 2.134 0 0 0-2.125-2.142zm0 2.856a.712.712 0 0 1-.71-.714c0-.394.318-.714.71-.714.39 0 .708.32.708.714a.712.712 0 0 1-.708.714zM36.847 12.858A2.134 2.134 0 0 0 34.72 15c0 1.183.952 2.141 2.126 2.141A2.134 2.134 0 0 0 38.972 15a2.134 2.134 0 0 0-2.125-2.142zm0 2.856a.712.712 0 0 1-.709-.714c0-.394.318-.714.709-.714.39 0 .708.32.708.714a.712.712 0 0 1-.708.714z"/>
            </g>
        </g>
    </g>
</svg>
