<svg xmlns="http://www.w3.org/2000/svg" xmlns:xlink="http://www.w3.org/1999/xlink" width="44" height="42" viewBox="0 0 44 42">
    <defs>
        <path id="a" d="M36.06 39.5c-1.966 0-3.56-1.567-3.56-3.5s1.594-3.5 3.56-3.5c1.965 0 3.56 1.567 3.56 3.5s-1.595 3.5-3.56 3.5z"/>
        <path id="b" d="M8.06 39.5c-1.966 0-3.56-1.567-3.56-3.5s1.594-3.5 3.56-3.5c1.965 0 3.56 1.567 3.56 3.5s-1.595 3.5-3.56 3.5z"/>
    </defs>
    <g fill="none" fill-rule="evenodd">
        <path fill="#DEDEDE" d="M2 28h40a2 2 0 0 1 2 2v12a2 2 0 0 1-2 2H2a2 2 0 0 1-2-2V30a2 2 0 0 1 2-2z"/>
        <g fill-rule="nonzero" stroke-linejoin="square">
            <path fill="#4B4B4B" fill-rule="evenodd" stroke="#DEDEDE" stroke-width="5" d="M35.971 32.5a3.53 3.53 0 0 0-3.41 2.629l-.227.875.226.862c.46 1.754 2.203 2.871 4.014 2.561 1.807-.309 3.07-1.934 2.913-3.735-.157-1.804-1.681-3.193-3.516-3.191zM11.689 36l-.226-.871c-.443-1.706-2.102-2.824-3.873-2.6-1.77.223-3.09 1.712-3.09 3.47 0 1.76 1.32 3.249 3.09 3.472 1.771.224 3.43-.894 3.873-2.6L11.69 36z"/>
            <path stroke="#4B4B4B" stroke-width="2" d="M35.967 31a5.03 5.03 0 0 0-4.857 3.752l-.195.748H13.11l-.194-.749c-.633-2.437-2.995-4.028-5.513-3.71C4.884 31.357 3 33.483 3 36c0 2.516 1.884 4.642 4.402 4.96 2.518.318 4.88-1.274 5.513-3.712l.194-.748h17.804l.196.746c.658 2.509 3.142 4.1 5.718 3.66 2.574-.44 4.378-2.764 4.154-5.344-.224-2.582-2.401-4.565-5.014-4.561z"/>
        </g>
        <g fill-rule="nonzero">
            <use fill="#FFF" xlink:href="#a"/>
            <path d="M36.06 39.5c-1.966 0-3.56-1.567-3.56-3.5s1.594-3.5 3.56-3.5c1.965 0 3.56 1.567 3.56 3.5s-1.595 3.5-3.56 3.5z"/>
            <use stroke="#DEDEDE" stroke-width="3" xlink:href="#a"/>
            <path stroke="#4B4B4B" stroke-width="2" d="M36.06 40.5c-2.515 0-4.56-2.011-4.56-4.5s2.045-4.5 4.56-4.5c2.514 0 4.56 2.011 4.56 4.5s-2.046 4.5-4.56 4.5z"/>
        </g>
        <g fill-rule="nonzero">
            <use fill="#FFF" xlink:href="#b"/>
            <path d="M8.06 39.5c-1.966 0-3.56-1.567-3.56-3.5s1.594-3.5 3.56-3.5c1.965 0 3.56 1.567 3.56 3.5s-1.595 3.5-3.56 3.5z"/>
            <use stroke="#DEDEDE" stroke-width="3" xlink:href="#b"/>
            <path stroke="#4B4B4B" stroke-width="2" d="M8.06 40.5c-2.515 0-4.56-2.011-4.56-4.5s2.045-4.5 4.56-4.5c2.514 0 4.56 2.011 4.56 4.5s-2.046 4.5-4.56 4.5z"/>
        </g>
        <path fill="#4B4B4B" fill-rule="nonzero" d="M2.944 19.88c.77.342 1.642-.074 1.95-.928l2.022-5.619h5.168l2.022 5.619c.308.855 1.181 1.27 1.951.928.77-.342 1.143-1.313.835-2.168l-6-16.662C10.667.416 10.115 0 9.5 0c-.614 0-1.167.416-1.394 1.05L2.107 17.712c-.148.411-.142.87.014 1.277.157.406.454.727.823.891zM9.5 6.155L10.884 10H8.115L9.5 6.155zM40.472 10c1.473-1.654 1.93-4.174 1.155-6.37C40.852 1.432 39-.003 36.945 0h-6.5C29.646 0 29 .746 29 1.667v16.666c0 .92.647 1.667 1.444 1.667h6.5c2.056.003 3.908-1.432 4.683-3.629.775-2.197.318-4.717-1.155-6.371zm-1.36-4.167c0 1.381-.971 2.5-2.167 2.5h-5.056v-5h5.056c1.196 0 2.166 1.12 2.166 2.5zm-2.167 10.834h-5.056v-5h5.056c1.196 0 2.166 1.119 2.166 2.5 0 1.38-.97 2.5-2.166 2.5z"/>
    </g>
</svg>
