<svg xmlns="http://www.w3.org/2000/svg" width="40" height="40" viewBox="0 0 40 40">
    <g fill="#FFF" fill-rule="evenodd">
        <path fill-rule="nonzero" d="M37.987 6.296H18.679V2.607c0-1.233-.902-2.237-2.012-2.237H2.013C.903.37 0 1.373 0 2.607v34.786c0 1.233.903 2.237 2.013 2.237h35.974c1.11 0 2.013-1.003 2.013-2.237V8.533c0-1.234-.903-2.237-2.013-2.237zm.68 31.097c0 .417-.305.755-.68.755H2.013c-.375 0-.68-.338-.68-.755V14.444h37.334v22.949zM1.333 12.963V2.607c0-.417.305-.755.68-.755h14.654c.374 0 .679.338.679.755v5.17h20.64c.376 0 .68.34.68.756v4.43H1.334z"/>
        <path d="M12.667 22.593H22c.368 0 .667-.332.667-.741 0-.41-.299-.74-.667-.74h-9.333c-.368 0-.667.33-.667.74s.299.74.667.74zM12.667 27.037h14.666c.368 0 .667-.331.667-.74 0-.41-.299-.741-.667-.741H12.667c-.368 0-.667.33-.667.74s.299.741.667.741zM12.667 31.481h14.666c.368 0 .667-.33.667-.74S27.701 30 27.333 30H12.667c-.368 0-.667.331-.667.74 0 .41.299.741.667.741z"/>
    </g>
</svg>
