<svg xmlns="http://www.w3.org/2000/svg" width="38" height="35" viewBox="0 0 38 35">
    <g fill="#fff" fill-rule="nonzero">
        <path d="M-1-3h40v40H-1z"/>
        <g fill="#ff0000">
            <path d="M5.643.41H.714a.571.571 0 1 0 0 1.144h4.929a.57.57 0 1 0 0-1.143zM5.643 32.91H.714a.571.571 0 1 0 0 1.144h4.929a.57.57 0 1 0 0-1.143z"/>
            <path d="M1.618 30.078a.57.57 0 1 0-.808.808l1.84 1.84a.572.572 0 0 0 .808 0l.124-.126.002-.001 1.696-1.697a.57.57 0 0 0 0-.807.569.569 0 0 0-.808 0l-.721.722V3.647l.8.802a.57.57 0 0 0 .808 0 .57.57 0 0 0 0-.808L3.583 1.864a.573.573 0 0 0-.809 0l-1.91 1.91a.57.57 0 1 0 .807.808l.936-.935v27.419l-.989-.988z"/>
            <path fill-rule="nonzero" d="M21.214 29.809V28.34h2.572a.57.57 0 1 0 0-1.143h-2.572v-7.215h4.715v3.857a.57.57 0 1 0 1.142 0V.982A.57.57 0 0 0 26.5.411H8.143a.571.571 0 0 0-.572.571v32.5a.57.57 0 0 0 .572.572H14a.57.57 0 0 0 .571-.572V28.34h5.5v1.469a.57.57 0 1 0 1.143 0zm0-10.97v-7.928h4.715v7.928h-4.715zm4.715-9.071h-4.715V1.554h4.715v8.214zm-5.858 0h-5.5V1.554h5.5v8.214zm-6.642 0H8.714V1.554h4.715v8.214zM8.714 19.982h4.715v7.215H8.714v-7.215zm0-1.143v-7.928h4.715v7.928H8.714zm5.857-7.928h5.5v7.928h-5.5v-7.928zm-1.142 22H8.714v-4.572h4.715v4.572zm1.142-5.714v-7.215h5.5v7.215h-5.5zM37.397 17.777a.566.566 0 0 0-.623.124L21.024 33.65a.572.572 0 0 0 .403.975h15.751a.571.571 0 0 0 .572-.571v-15.75a.564.564 0 0 0-.045-.218.564.564 0 0 0-.308-.309zm-.79 1.906v13.799H22.808l13.799-13.799z"/>
            <path fill-rule="nonzero" d="M34.429 25.56a.579.579 0 0 0-.353-.529.562.562 0 0 0-.623.124l-4.747 4.747a.57.57 0 0 0 .403.976h4.748a.57.57 0 0 0 .572-.572.57.57 0 0 0-.064-.25.553.553 0 0 0 .064-.249V25.56zm-1.143 4.175H30.49l2.796-2.798v2.798z"/>
        </g>
    </g>
</svg>
