<svg xmlns="http://www.w3.org/2000/svg" width="44" height="44" viewBox="0 0 44 44">
    <g fill="none" fill-rule="evenodd">
        <path fill="#4B4B4B" fill-rule="nonzero" d="M37.556 6.444a21.895 21.895 0 0 0-7.121-4.765A21.889 21.889 0 0 0 22.032 0H22C16.123 0 9.76 2.578 5.523 7.42A21.942 21.942 0 0 0 0 22c0 3.863 1.004 7.64 2.908 10.95L1.293 39.4a2.728 2.728 0 0 0 .68 2.56c.872.908 1.893.908 2.605.742l6.886-1.378A21.995 21.995 0 0 0 22 44a21.94 21.94 0 0 0 14.58-5.523C42 33.202 44 27.877 44 22c0-5.876-2.288-11.4-6.444-15.556zm-2.688 30.104A19.363 19.363 0 0 1 22 41.422c-3.369 0-6.677-.868-9.567-2.51a1.657 1.657 0 0 0-1.14-.183l-7.244 1.45-.05.01a.574.574 0 0 1-.13.02.364.364 0 0 1-.034-.032.16.16 0 0 1-.041-.15l1.707-6.819a1.643 1.643 0 0 0-.186-1.251A19.365 19.365 0 0 1 2.578 22c0-4.756 1.731-9.326 4.874-12.869C11.462 4.63 16.812 2.578 22 2.578h.028a19.297 19.297 0 0 1 13.705 5.689A19.295 19.295 0 0 1 41.422 22c0 5.188-1.74 10.152-6.554 14.548z"/>
        <g stroke-linejoin="square">
            <path fill="#FFF" stroke="#DEDEDE" stroke-width="5" d="M34.877 36.644C39.531 32.102 41.5 27.527 41.5 22a19.355 19.355 0 0 0-5.712-13.788 19.395 19.395 0 0 0-6.312-4.224A19.384 19.384 0 0 0 22.032 2.5H22c-5.405 0-10.989 2.445-14.606 6.58A19.442 19.442 0 0 0 2.5 22c0 3.425.89 6.772 2.575 9.703l.504.874-.245.98-1.616 6.45a.225.225 0 0 0 .058.22c.072.076.077.077.31.024l7.78-1.557.797.436A19.495 19.495 0 0 0 22 41.5a19.44 19.44 0 0 0 12.877-4.856z"/>
            <path stroke="#4B4B4B" stroke-width="2" d="M36.849 7.151a20.895 20.895 0 0 0-6.798-4.549A20.887 20.887 0 0 0 22.031 1H22C16.17 1 10.172 3.626 6.272 8.084A20.942 20.942 0 0 0 1 22c0 3.687.958 7.292 2.775 10.45l.202.35-.098.392-1.616 6.451a1.727 1.727 0 0 0 .43 1.624c.478.497 1.024.609 1.688.455l7.243-1.45.32.174A20.995 20.995 0 0 0 22 43c5.143 0 10.085-1.872 13.882-5.24C40.852 32.925 43 27.953 43 22c0-5.61-2.183-10.881-6.151-14.849z"/>
        </g>
        <path fill="#FFF" fill-rule="nonzero" d="M17 18h10v8H17z"/>
        <path fill="#4B4B4B" fill-rule="nonzero" stroke="#FFF" stroke-width=".2" d="M30.028 18.285H28.04l-.096-.127.814-2.938a.883.883 0 0 0-.605-1.087.87.87 0 0 0-1.074.611l-.962 3.467-.096.074h-5.107l-.096-.127.81-2.926a.884.884 0 0 0-.604-1.087.871.871 0 0 0-1.075.61l-.958 3.456-.096.074H16.14a.877.877 0 0 0-.872.882c0 .487.39.882.872.882h2.213l.096.126-1.01 3.647-.097.074h-2.369a.877.877 0 0 0-.872.882c0 .487.39.882.872.882h1.825l.096.127-.832 3c-.13.469.141.955.602 1.086a.898.898 0 0 0 1.078-.61l.978-3.53.097-.073h5.107l.096.127-.828 2.987c-.13.47.14.957.601 1.087.518.127.953-.16 1.078-.61l.975-3.518.097-.073h2.92a.877.877 0 0 0 .871-.882.877.877 0 0 0-.872-.882h-2.375l-.096-.127 1.01-3.647.097-.073h2.53a.877.877 0 0 0 .873-.882.877.877 0 0 0-.872-.882zm-5.561 5.61H19.36l-.096-.126 1.01-3.647.097-.073h5.107l.096.126-1.01 3.647-.097.074z"/>
    </g>
</svg>
