<svg xmlns="http://www.w3.org/2000/svg" width="44" height="43" viewBox="0 0 44 43">
    <g fill="none" fill-rule="evenodd">
        <g stroke-linejoin="square">
            <path fill="#FFF" stroke="#DEDEDE" stroke-width="5" d="M41.5 2.543h-39v37.924h39V2.543z"/>
            <path stroke="#4B4B4B" stroke-width="2" d="M43 1.87c0-.482-.304-.827-.607-.827H1.606c-.303 0-.606.345-.606.827v39.27c0 .482.303.827.606.827h40.787c.303 0 .607-.346.607-.827V1.87z"/>
        </g>
        <path fill="#DEDEDE" stroke="#FFF" stroke-width="2" d="M38 25.312h-.435l-.296-.317-6.815-7.305-7.692 8.441-2.292 2.794-.78-.849-6.48-7.061-6.864 8.103H6v7.872h32V25.312zM5.342 36.992H5.33l.043.001zm32.659.742z"/>
        <path fill="#4B4B4B" d="M20.325 12.736a3.423 3.423 0 0 1-1.795 3.013 3.358 3.358 0 0 1-1.6.404c-1.874 0-3.396-1.533-3.396-3.417 0-1.885 1.522-3.418 3.395-3.418.578 0 1.123.147 1.6.405a3.423 3.423 0 0 1 1.796 3.013z"/>
    </g>
</svg>
