<svg xmlns="http://www.w3.org/2000/svg" width="25" height="25" viewBox="0 0 25 25">
    <g fill="#4A4A4A" fill-rule="evenodd">
        <path d="M24.69 11.845l-2.674-2.063c-.485-.374-1.155.007-1.155.655v1.262H8.017c-.404 0-.732.358-.732.801 0 .443.328.801.732.801h12.844v1.262c0 .652.673 1.026 1.155.655l2.674-2.063c.409-.315.417-.988 0-1.31z"/>
        <path d="M20.683 18.478c-.35-.221-.799-.09-1.001.293-1.72 3.254-4.6 4.605-8.276 4.605-5.481 0-9.941-4.879-9.941-10.876s4.46-10.876 9.941-10.876c3.678 0 6.29 1.38 8.009 4.632.202.383.65.514 1 .293.35-.222.47-.712.268-1.095C18.703 1.71 15.612.02 11.406.02 5.102.021 0 5.602 0 12.5c0 6.897 5.102 12.479 11.406 12.479 4.208 0 7.566-1.665 9.544-5.406.202-.383.083-.873-.267-1.095z"/>
    </g>
</svg>
