<svg xmlns="http://www.w3.org/2000/svg" xmlns:xlink="http://www.w3.org/1999/xlink" width="44" height="15" viewBox="0 0 44 15">
    <defs>
        <path id="a" d="M0 0h44v44H0z"/>
    </defs>
    <g fill="none" fill-rule="evenodd" transform="translate(0 -15)">
        <mask id="b" fill="#fff">
            <use xlink:href="#a"/>
        </mask>
        <g mask="url(#b)">
            <g transform="matrix(-1 0 0 1 44 15)">
                <path fill="#DEDEDE" d="M4.176 11.736H2.198l-.35-4.48c-.063-.793.487-1.5 1.254-1.612l10-1.461 2.68-3.275c.24-.293.594-.462.966-.462h4.862c.565 0 1.06.386 1.214.946l.78 2.85h18.174v7.494H4.176z"/>
                <path fill="#4B4B4B" fill-rule="nonzero" d="M41.778 12.174H2.198a.43.43 0 0 1-.424-.403l-.35-4.48c-.08-1.021.63-1.935 1.618-2.08l9.84-1.437L15.457.627a1.665 1.665 0 0 1 1.291-.618h4.862c.752 0 1.42.52 1.624 1.264l.692 2.532h17.852c.235 0 .426.196.426.438v7.493c0 .242-.19.438-.426.438zm-39.187-.876h38.761V4.68H23.604a.428.428 0 0 1-.41-.32l-.78-2.85a.842.842 0 0 0-.804-.626h-4.862a.824.824 0 0 0-.64.306l-2.68 3.275a.422.422 0 0 1-.265.151L3.162 6.078c-.543.079-.934.581-.89 1.144l.32 4.076z"/>
                <path fill="#FFF" d="M42.317 11.736H41.24c-.626 0-1.138-.527-1.138-1.17 0-.644.512-1.17 1.138-1.17h1.078c.626 0 1.138.526 1.138 1.17 0 .643-.512 1.17-1.138 1.17z"/>
                <path fill="#4B4B4B" fill-rule="nonzero" d="M42.317 12.174H41.24c-.863 0-1.564-.722-1.564-1.608 0-.886.701-1.607 1.564-1.607h1.078c.863 0 1.564.72 1.564 1.607 0 .886-.701 1.608-1.564 1.608zm-1.078-2.34a.723.723 0 0 0-.713.732c0 .404.32.732.713.732h1.078a.723.723 0 0 0 .713-.732.723.723 0 0 0-.713-.732H41.24z"/>
                <path fill="#FFF" d="M2.268 11.736h-.704c-.626 0-1.138-.527-1.138-1.17 0-.644.512-1.17 1.138-1.17h.704c.626 0 1.138.526 1.138 1.17 0 .643-.512 1.17-1.138 1.17z"/>
                <path fill="#4B4B4B" fill-rule="nonzero" d="M2.268 12.174h-.704C.7 12.174 0 11.452 0 10.566c0-.886.701-1.608 1.564-1.608h.704c.862 0 1.563.722 1.563 1.608 0 .886-.701 1.608-1.563 1.608zm-.704-2.34a.723.723 0 0 0-.713.732c0 .404.32.732.713.732h.704a.723.723 0 0 0 .712-.732.723.723 0 0 0-.712-.732h-.704z"/>
                <ellipse cx="8.031" cy="11.142" fill="#FFF" rx="3.192" ry="3.282"/>
                <path fill="#4B4B4B" fill-rule="nonzero" d="M8.032 14.862c-1.995 0-3.618-1.669-3.618-3.72 0-2.05 1.623-3.719 3.618-3.719 1.995 0 3.618 1.669 3.618 3.72 0 2.05-1.623 3.719-3.618 3.719zm0-6.564c-1.525 0-2.766 1.276-2.766 2.845 0 1.568 1.24 2.844 2.766 2.844S10.8 12.71 10.8 11.143c0-1.569-1.241-2.845-2.767-2.845z"/>
                <path fill="#FFF" d="M21.724 4.382l-.558-2.038H17.02l-1.667 2.038z"/>
                <g fill="#4B4B4B">
                    <path fill-rule="nonzero" d="M21.724 4.82h-6.371a.425.425 0 0 1-.386-.253.447.447 0 0 1 .06-.466l1.668-2.038a.42.42 0 0 1 .325-.156h4.146c.191 0 .359.13.41.319l.558 2.038a.448.448 0 0 1-.07.383.421.421 0 0 1-.34.173zm-5.457-.875h4.895l-.318-1.163h-3.625l-.952 1.163z"/>
                    <path d="M23.062 5.726h1v4.84h-1zM12.677 5.726h1v4.84h-1z"/>
                </g>
                <ellipse cx="31.794" cy="11.142" fill="#FFF" rx="3.192" ry="3.282"/>
                <g fill="#4B4B4B" transform="translate(6.821 7.407)">
                    <path fill-rule="nonzero" d="M24.973 7.454c-1.994 0-3.617-1.668-3.617-3.719 0-2.05 1.623-3.72 3.617-3.72 1.995 0 3.618 1.67 3.618 3.72 0 2.05-1.623 3.72-3.618 3.72zm0-6.563c-1.525 0-2.766 1.276-2.766 2.844 0 1.568 1.241 2.844 2.766 2.844 1.526 0 2.767-1.276 2.767-2.844 0-1.568-1.241-2.844-2.767-2.844z"/>
                    <ellipse cx="1.21" cy="3.734" rx="1.138" ry="1.17"/>
                    <ellipse cx="24.973" cy="3.734" rx="1.138" ry="1.17"/>
                </g>
            </g>
        </g>
    </g>
</svg>
