<svg xmlns="http://www.w3.org/2000/svg" width="43" height="44" viewBox="0 0 43 44">
    <g fill="none" fill-rule="evenodd">
        <path fill="#4B4B4B" d="M5.882 0H3.743L1 2.612l1.432 1.563c.565-.507.901-.878 1.009-1.11h.04v.246c0 .549-.003 1.378-.01 2.49-.007 1.11-.01 1.946-.01 2.508H1.302v2.037H8.06V8.309H5.882V0z"/>
        <path fill="#DEDEDE" stroke="#4B4B4B" stroke-width="2" d="M41.325 2H12v6h29.325V2zM12.017 8.083l.002.003a.078.078 0 0 0-.007-.008zm29.29.001l-.002.003a.104.104 0 0 0 .005-.006z"/>
        <path fill="#4B4B4B" d="M5.064 37.175L6.98 34.81V33H.262v3.126h2.139v-1.09c.215 0 .54-.006.978-.02.437-.014.763-.02.979-.02v.02c-.256.247-.505.51-.747.792a16.5 16.5 0 0 0-.857 1.11c-.33.46-.548.758-.656.895l.525 1.152c1.412-.11 2.118.274 2.118 1.152 0 .383-.145.675-.434.873a1.75 1.75 0 0 1-1.019.299c-.766 0-1.479-.309-2.138-.926L0 42.173c.888.905 2.044 1.358 3.47 1.358 1.09 0 2-.316 2.733-.946.733-.631 1.1-1.495 1.1-2.592 0-.7-.202-1.303-.605-1.81-.404-.507-.948-.843-1.634-1.008zM5.305 24.494H2.743c.014-.343.253-.703.717-1.08a11.33 11.33 0 0 1 1.523-1.038c.55-.316 1.055-.757 1.513-1.326.457-.57.685-1.197.685-1.882 0-.974-.336-1.745-1.008-2.314-.672-.57-1.5-.854-2.481-.854-.78 0-1.49.195-2.129.586-.639.391-1.12.936-1.442 1.636l1.715 1.213c.47-.795 1.015-1.193 1.634-1.193.336 0 .602.093.797.278.195.185.292.449.292.792 0 .315-.158.624-.474.925-.316.302-.696.6-1.14.895-.443.295-.887.62-1.331.977-.444.356-.824.822-1.14 1.398A3.911 3.911 0 0 0 0 25.42c0 .247.04.617.12 1.11h7.303v-3.27H5.305v1.234z"/>
        <path fill="#DEDEDE" stroke="#4B4B4B" stroke-width="2" d="M41.325 35H12v6h29.325v-6zm-.02 6.086z"/>
        <path fill="#FFF" stroke="#4B4B4B" stroke-width="2" d="M41.325 18H12v6h29.325v-6zm-.018 6.085l-.002.002a.109.109 0 0 0 .004-.006z"/>
    </g>
</svg>
