<svg xmlns="http://www.w3.org/2000/svg" width="37" height="37" viewBox="0 0 37 37">
    <g fill="none" fill-rule="evenodd">
        <ellipse cx="19.117" cy="17.883" fill="#FFF" rx="15.417" ry="17.883"/>
        <g fill="#4A4A4A">
            <path fill-rule="nonzero" d="M18.5 37C8.283 37 0 28.717 0 18.5S8.283 0 18.5 0 37 8.283 37 18.5c-.011 10.213-8.287 18.489-18.5 18.5zm0-35.577C9.069 1.423 1.423 9.07 1.423 18.5c0 9.431 7.646 17.077 17.077 17.077 9.431 0 17.077-7.646 17.077-17.077-.01-9.427-7.65-17.066-17.077-17.077z"/>
            <path d="M18.5 28.462a.711.711 0 0 1-.712-.712V9.962a.712.712 0 1 1 1.424 0V27.75a.711.711 0 0 1-.712.712z"/>
            <path d="M27.394 19.212H9.606a.712.712 0 1 1 0-1.424h17.788a.712.712 0 1 1 0 1.424z"/>
        </g>
    </g>
</svg>
