<svg xmlns="http://www.w3.org/2000/svg" width="44" height="44" viewBox="0 0 44 44">
    <g fill="none" fill-rule="evenodd" stroke-linejoin="square">
        <path fill="#FFF" stroke="#DEDEDE" stroke-width="5" d="M40.26 21.978l-4.123-3.788 1.661-5.354-5.47-1.186-1.23-5.481-5.331 1.707-3.79-4.14-3.788 4.14-5.332-1.707-1.23 5.48-5.47 1.187L7.82 18.19l-4.123 3.788 4.123 3.788-1.662 5.353 5.47 1.187 1.23 5.48 5.332-1.707 3.789 4.14 3.789-4.14 5.331 1.708 1.23-5.481 5.47-1.187-1.661-5.354 4.123-3.787z"/>
        <path stroke="#4B4B4B" stroke-width="2" d="M42.477 21.977l-4.626-4.25 1.865-6.01-6.134-1.33-1.38-6.147-5.978 1.915-4.246-4.64-4.247 4.64-5.978-1.915-1.38 6.146-6.134 1.331 1.866 6.01-4.627 4.25 4.627 4.25-1.866 6.011 6.134 1.33 1.38 6.148 5.978-1.915 4.247 4.64 4.246-4.64 5.979 1.915 1.38-6.147 6.133-1.33-1.865-6.011 4.626-4.25z"/>
    </g>
</svg>
