<svg xmlns="http://www.w3.org/2000/svg" width="25" height="25" viewBox="0 0 25 25">
    <defs>
        <linearGradient id="a" x1="0%" y1="0%" y2="100%">
            <stop offset="0%" stop-color="#5CBB34"/>
            <stop offset="100%" stop-color="#268200"/>
        </linearGradient>
    </defs>
    <g fill="#4a4a4a" fill-rule="nonzero" transform="translate(-33 -7)">
        <path d="M56.706 16.87l-1.754-.298a9.902 9.902 0 0 0-.705-1.701l1.034-1.446a1.539 1.539 0 0 0-.167-1.989l-1.556-1.555a1.532 1.532 0 0 0-1.983-.167l-1.45 1.033a9.8 9.8 0 0 0-1.765-.725l-.292-1.733A1.542 1.542 0 0 0 46.544 7h-2.197c-.757 0-1.4.543-1.524 1.29l-.303 1.774a9.658 9.658 0 0 0-1.696.715l-1.436-1.034a1.532 1.532 0 0 0-.897-.287c-.413 0-.804.162-1.091.454l-1.56 1.556a1.545 1.545 0 0 0-.168 1.988l1.044 1.467a9.672 9.672 0 0 0-.694 1.706l-1.733.293A1.542 1.542 0 0 0 33 18.446v2.197c0 .757.543 1.399 1.29 1.524l1.774.303c.182.584.422 1.153.715 1.696l-1.028 1.43a1.539 1.539 0 0 0 .167 1.989l1.555 1.555a1.532 1.532 0 0 0 1.983.167l1.467-1.044c.527.277 1.08.501 1.649.679l.292 1.753c.126.747.768 1.29 1.524 1.29h2.203c.757 0 1.399-.543 1.524-1.29l.297-1.753a9.902 9.902 0 0 0 1.702-.705l1.445 1.033c.261.188.575.287.898.287.413 0 .799-.161 1.091-.454l1.555-1.555a1.545 1.545 0 0 0 .167-1.988l-1.033-1.451a9.831 9.831 0 0 0 .705-1.702l1.753-.292a1.542 1.542 0 0 0 1.29-1.524v-2.197a1.523 1.523 0 0 0-1.28-1.524zm-.12 3.72a.135.135 0 0 1-.115.137l-2.192.365a.7.7 0 0 0-.564.517 8.355 8.355 0 0 1-.908 2.186c-.141.24-.13.538.031.768l1.29 1.816a.142.142 0 0 1-.016.177l-1.556 1.556a.133.133 0 0 1-.099.041.128.128 0 0 1-.078-.026l-1.811-1.289a.705.705 0 0 0-.767-.031c-.684.407-1.42.71-2.187.908a.693.693 0 0 0-.517.564l-.37 2.192a.135.135 0 0 1-.136.115h-2.197a.135.135 0 0 1-.136-.115l-.366-2.192a.7.7 0 0 0-.516-.564 8.676 8.676 0 0 1-2.14-.877.722.722 0 0 0-.355-.094.687.687 0 0 0-.407.13l-1.827 1.3a.155.155 0 0 1-.078.026.14.14 0 0 1-.1-.041l-1.555-1.556a.142.142 0 0 1-.015-.177l1.284-1.8a.715.715 0 0 0 .031-.773 8.276 8.276 0 0 1-.919-2.182.715.715 0 0 0-.563-.516l-2.208-.376a.135.135 0 0 1-.115-.136v-2.197c0-.068.047-.125.115-.136l2.176-.365a.706.706 0 0 0 .57-.522c.192-.767.49-1.509.892-2.192a.697.697 0 0 0-.037-.762l-1.3-1.827a.142.142 0 0 1 .016-.177l1.556-1.556a.133.133 0 0 1 .099-.042c.031 0 .057.01.078.027l1.8 1.284c.23.161.533.172.773.03a8.276 8.276 0 0 1 2.182-.918.715.715 0 0 0 .517-.563l.375-2.208a.135.135 0 0 1 .136-.115h2.197c.068 0 .126.047.136.115l.365 2.176c.047.277.25.501.522.57.788.197 1.54.505 2.24.918.24.14.537.13.767-.032l1.8-1.294a.155.155 0 0 1 .078-.026.14.14 0 0 1 .1.042l1.555 1.555c.047.047.052.12.016.177l-1.29 1.812a.705.705 0 0 0-.03.767c.406.683.709 1.42.907 2.187a.693.693 0 0 0 .564.516l2.192.37c.068.011.115.069.115.137v2.197h-.005z"/>
        <path d="M45.495 14.098a5.395 5.395 0 0 0-5.392 5.392 5.395 5.395 0 0 0 5.392 5.391 5.395 5.395 0 0 0 5.391-5.391 5.395 5.395 0 0 0-5.391-5.392zm0 9.374a3.985 3.985 0 0 1-3.982-3.982 3.985 3.985 0 0 1 3.982-3.983 3.985 3.985 0 0 1 3.982 3.983 3.985 3.985 0 0 1-3.982 3.982z"/>
    </g>
</svg>
