<svg xmlns="http://www.w3.org/2000/svg" width="25" height="25" viewBox="0 0 25 25">
    <g fill="#4A4A4A" fill-rule="evenodd">
        <path d="M24.068 19.599c-.043-.377-.294-.633-.56-.571-.267.06-.447.416-.404.792l.27 2.355-10.007-9.66 10.007-9.659-.27 2.355c-.043.376.137.731.404.792a.352.352 0 0 0 .079.01c.235 0 .442-.242.481-.581l.453-3.943c.043-.377-.137-.731-.404-.793L21.33.056c-.266-.061-.518.195-.56.571-.044.377.137.732.403.793l1.581.363L12.5 11.679 6.588 5.973c-.223-.215-.527-.134-.68.18-.151.316-.094.746.129.96l5.597 5.403-10.008 9.659.27-2.355c.044-.376-.137-.73-.404-.792-.266-.061-.517.194-.56.571l-.453 3.943c-.043.377.138.731.404.793l2.789.64a.352.352 0 0 0 .079.009c.235 0 .442-.241.481-.58.043-.377-.137-.732-.404-.793l-1.581-.363L12.5 13.352l10.253 9.896-1.581.363c-.266.061-.447.416-.404.793.039.339.246.58.482.58a.352.352 0 0 0 .079-.01l2.788-.64c.267-.06.447-.416.404-.792l-.453-3.943zM5.389 4.815L2.247 1.783l1.581-.363c.267-.061.447-.416.404-.793-.043-.376-.294-.633-.56-.57L.883.696c-.266.06-.447.415-.404.792l.453 3.943c.039.34.246.58.482.58a.352.352 0 0 0 .079-.009c.266-.061.447-.416.403-.792l-.27-2.355 3.212 3.1c.084.081.18.12.275.12.156 0 .309-.105.404-.301.152-.315.094-.745-.128-.96z"/>
    </g>
</svg>
