<svg xmlns="http://www.w3.org/2000/svg" width="44" height="44" viewBox="0 0 44 44">
    <g fill="none" fill-rule="evenodd">
        <path fill="#FFF" d="M41.422 13.836H25.438v.121L18.575 27.58c.248 6.357 4.135 12.03 9.62 14.552l1.301.6a3.227 3.227 0 0 0 2.71 0l1.3-.6c5.688-2.616 9.634-8.62 9.634-15.26v-11.19c0-1.02-.77-1.846-1.72-1.846z"/>
        <path fill="#F4F5F9" d="M36.008 35.975H25.695c0-3.057 2.309-5.535 5.157-5.535s5.156 2.478 5.156 5.535z"/>
        <path fill="#FFF" d="M25.438 13.836v.121c0 6.628-3.933 12.64-9.633 15.261l-1.302.6a3.227 3.227 0 0 1-2.71 0l-1.3-.6C4.804 26.602.858 20.598.858 13.958V2.767c0-1.02.77-1.846 1.72-1.846h21.14c.95 0 1.718.826 1.718 1.845v11.07z"/>
        <path fill="#FFF" d="M7.992 17.526h10.313c0 3.057-2.309 5.535-5.157 5.535s-5.156-2.478-5.156-5.535z"/>
        <path fill="#4B4B4B" d="M28.86 19.845c.474 0 .859-.413.859-.923 0-.509-.385-.922-.86-.922-.474 0-.859.413-.859.922 0 .51.385.923.86.923zM5.86 6.845c.474 0 .859-.413.859-.923 0-.509-.385-.922-.86-.922C5.385 5 5 5.413 5 5.922c0 .51.385.923.86.923z"/>
        <path fill="#4B4B4B" fill-rule="nonzero" d="M10.153 30.066l1.303.6a4.049 4.049 0 0 0 3.386 0l1.301-.6c.582-.268 1.15-.573 1.702-.91.763 6 4.57 11.321 10.012 13.824l1.302.6a4.05 4.05 0 0 0 3.385 0l1.302-.6C39.9 40.196 44 33.835 44 26.87v-11.19c0-1.526-1.156-2.767-2.578-2.767H26.297V2.767C26.297 1.241 25.14 0 23.719 0H2.579C1.155 0 0 1.241 0 2.767v11.19c0 6.972 4.11 13.329 10.153 16.109zM42.281 15.68v11.19c0 6.114-3.661 11.906-9.112 14.413l-1.301.6a2.43 2.43 0 0 1-2.032 0l-1.302-.6c-5.15-2.368-8.667-7.531-9.072-13.248a17.64 17.64 0 0 0 3.22-3.283 4.12 4.12 0 0 0 2.756 1.075 4.13 4.13 0 0 0 2.842-1.153.97.97 0 0 0 .076-1.302.82.82 0 0 0-1.213-.081 2.478 2.478 0 0 1-1.706.691 2.476 2.476 0 0 1-1.705-.691c-.012-.012-.026-.023-.039-.034a17.985 17.985 0 0 0 2.584-8.5h15.145c.474 0 .86.415.86.923zM1.72 2.767c0-.508.385-.922.86-.922h21.14c.474 0 .86.414.86.922v11.19c0 6.3-3.74 11.942-9.113 14.413l-1.301.6a2.43 2.43 0 0 1-2.032 0l-1.303-.6C5.38 25.863 1.72 20.071 1.72 13.957V2.767z"/>
        <g stroke-linejoin="square">
            <path stroke="#DEDEDE" stroke-width="4" d="M10.99 28.248v.001l1.301.6c.546.25 1.17.25 1.714 0l1.302-.6c.505-.232 1.005-.5 1.496-.8l2.636-1.608.39 3.063c.68 5.35 4.08 10.058 8.864 12.259l1.301.6c.546.25 1.17.25 1.714 0l1.303-.6C38.396 38.686 42 33.005 42 26.87v-11.19c0-.451-.294-.767-.578-.767H24.297V2.767c0-.452-.294-.767-.578-.767H2.579C2.293 2 2 2.315 2 2.767v11.19c0 6.137 3.605 11.815 8.99 14.291z"/>
            <path stroke="#4B4B4B" stroke-width="2" d="M10.571 29.157l1.303.6c.81.372 1.739.372 2.55 0l1.301-.6c.54-.248 1.075-.534 1.6-.854l1.317-.804.195 1.532c.724 5.688 4.338 10.694 9.438 13.04l1.301.6a3.05 3.05 0 0 0 2.55 0l1.302-.6c5.743-2.64 9.572-8.677 9.572-15.2v-11.19c0-.989-.725-1.767-1.578-1.767H25.297V2.767c0-.989-.725-1.767-1.578-1.767H2.579C1.724 1 1 1.778 1 2.767v11.19c0 6.525 3.831 12.56 9.571 15.2zm-.836 1.817z"/>
        </g>
        <g fill-rule="nonzero">
            <g fill="#4B4B4B">
                <path d="M24.303 14.907v2.017c0 .467 1.319 1.027 1.75 0 .088-.864.088-1.792 0-2.05-.058-.17-.642-.16-1.75.033zM19.372 25.885c1.112-1.245 1.728-1.95 1.851-2.113.123-.164.427.392.912 1.67-1.575 1.893-2.415 2.856-2.52 2.889-.105.032-.222-.6-.349-1.897l.106-.549z"/>
            </g>
            <path fill="#DEDEDE" d="M17.99 24.404c2.25-2.618 3.685-5.122 4.304-7.511.62-2.39 1.285-2.39 1.997 0-.607 3.508-2.248 6.505-4.923 8.99-1.55-1.656-.432-.528-.9-1.034a4.337 4.337 0 0 0-.478-.445z"/>
        </g>
        <path fill="#4B4B4B" fill-rule="nonzero" d="M18.305 16.604H7.992c-.474 0-.86.413-.86.922 0 3.56 2.7 6.457 6.016 6.457 3.317 0 6.016-2.896 6.016-6.457 0-.51-.385-.922-.86-.922zm-5.157 5.534c-2.074 0-3.81-1.588-4.21-3.69h8.421c-.4 2.102-2.136 3.69-4.21 3.69z"/>
        <path fill="#4B4B4B" d="M7.992 11.07c.629 0 1.235.245 1.706.691.356.338.9.3 1.213-.081a.97.97 0 0 0-.076-1.302 4.13 4.13 0 0 0-2.843-1.154c-1.048 0-2.057.41-2.842 1.154a.97.97 0 0 0-.076 1.302.82.82 0 0 0 1.213.081 2.477 2.477 0 0 1 1.705-.692zM15.462 10.377a.97.97 0 0 0-.075 1.303.819.819 0 0 0 1.212.08 2.478 2.478 0 0 1 1.706-.69c.628 0 1.234.245 1.705.69.357.339.9.3 1.213-.08a.97.97 0 0 0-.076-1.303 4.129 4.129 0 0 0-2.842-1.153c-1.048 0-2.057.41-2.843 1.153zM9.86 6.845h10.312c.475 0 .86-.413.86-.923S20.646 5 20.171 5H9.859C9.385 5 9 5.413 9 5.922c0 .51.385.923.86.923z"/>
        <path fill="#4B4B4B" fill-rule="nonzero" d="M24.836 33.975c0 .51.385.922.86.922h10.312c.474 0 .86-.413.86-.922 0-3.56-2.7-6.457-6.016-6.457-3.317 0-6.016 2.896-6.016 6.457zm6.016-4.612c2.074 0 3.811 1.587 4.21 3.69h-8.421c.4-2.103 2.136-3.69 4.21-3.69z"/>
        <path fill="#4B4B4B" d="M37.713 23.291a2.477 2.477 0 0 1-1.705.692 2.477 2.477 0 0 1-1.706-.692.82.82 0 0 0-1.212.082.97.97 0 0 0 .075 1.302 4.128 4.128 0 0 0 2.843 1.153c1.048 0 2.057-.41 2.842-1.153a.97.97 0 0 0 .076-1.302.82.82 0 0 0-1.213-.082zM32.86 19.845h5.156c.474 0 .859-.413.859-.923S38.49 18 38.015 18H32.86c-.474 0-.859.413-.859.922 0 .51.385.923.86.923z"/>
    </g>
</svg>
