<svg xmlns="http://www.w3.org/2000/svg" xmlns:xlink="http://www.w3.org/1999/xlink" width="35" height="36" viewBox="0 0 35 36">
    <defs>
        <path id="a" d="M0 0h40v40H0z"/>
    </defs>
    <g fill="none" fill-rule="evenodd" transform="translate(-2 -4)">
        <mask id="b" fill="#fff">
            <use xlink:href="#a"/>
        </mask>
        <g mask="url(#b)">
            <path d="M35.764 15.906c-1.741 0-3.153 1.425-3.153 3.182v-2.121c0-1.757-1.411-3.181-3.153-3.181-1.74 0-3.152 1.424-3.152 3.18v-2.12c0-1.757-1.412-3.181-3.153-3.181S20 13.089 20 14.846V4.242c0-1.757-1.411-3.182-3.153-3.182-1.74 0-3.152 1.425-3.152 3.182v26.51l-7.298-3.681a5.217 5.217 0 0 0-2.35-.56c-1.636 0-2.963 1.339-2.963 2.99v.013c-.002.795.31 1.558.868 2.12l13.59 13.714a15.148 15.148 0 0 0 10.764 4.492c6.964 0 12.61-5.697 12.61-12.725V19.088c0-1.757-1.411-3.182-3.152-3.182z"/>
            <path fill="#4B4B4B" fill-rule="nonzero" d="M25.026 49a14.04 14.04 0 0 1-10.083-4.25L3.032 32.625a3.634 3.634 0 0 1 .001-5.076A3.495 3.495 0 0 1 5.52 26.5c.857 0 1.703.204 2.47.592l5.064 2.579V7.75c0-2.071 1.65-3.75 3.684-3.75 2.035 0 3.684 1.679 3.684 3.75v6.13c1.762-1.037 4.015-.423 5.033 1.37.115.202.211.415.287.636a3.645 3.645 0 0 1 5.111 1.03c.173.262.313.546.415.845a3.644 3.644 0 0 1 5.111 1.032c.405.616.621 1.34.622 2.082v15.938C36.992 43.54 31.636 48.992 25.026 49zM5.52 28.375c-.93.003-1.682.772-1.68 1.719.002.452.18.886.494 1.206l11.91 12.124a12.233 12.233 0 0 0 8.783 3.7c5.593-.006 10.125-4.62 10.132-10.312V20.875c0-1.036-.825-1.875-1.842-1.875-1.017 0-1.842.84-1.842 1.875v4.687a.93.93 0 0 1-.921.938.93.93 0 0 1-.921-.938V19c0-1.036-.825-1.875-1.842-1.875-1.018 0-1.842.84-1.842 1.875v6.562a.93.93 0 0 1-.922.938.93.93 0 0 1-.92-.938v-8.437c0-1.036-.825-1.875-1.843-1.875-1.017 0-1.842.84-1.842 1.875v8.437a.93.93 0 0 1-.92.938.93.93 0 0 1-.922-.938V7.75c0-1.036-.825-1.875-1.842-1.875-1.017 0-1.842.84-1.842 1.875v23.438a.93.93 0 0 1-.921.937.908.908 0 0 1-.413-.1l-6.403-3.254a3.648 3.648 0 0 0-1.64-.396z"/>
        </g>
    </g>
</svg>
