<svg xmlns="http://www.w3.org/2000/svg" width="40" height="40" viewBox="0 0 40 40">
    <g fill="#FFF" fill-rule="evenodd">
        <path d="M24.219 14.844a.782.782 0 1 0 0 1.563.782.782 0 0 0 0-1.563z"/>
        <path fill-rule="nonzero" d="M39.084 34.666L28.656 24.237a15.485 15.485 0 0 0 2.594-8.612C31.25 7.009 24.24 0 15.625 0 7.009 0 0 7.01 0 15.625 0 24.241 7.01 31.25 15.625 31.25c3.09 0 6.054-.895 8.612-2.594l2.883 2.883.001.001 7.544 7.544c.59.59 1.376.916 2.21.916.834 0 1.62-.325 2.21-.915.59-.59.915-1.375.915-2.21s-.325-1.62-.916-2.21zM23.87 27.01a13.942 13.942 0 0 1-8.245 2.677c-7.754 0-14.063-6.308-14.063-14.062S7.872 1.562 15.626 1.562c7.754 0 14.063 6.309 14.063 14.063 0 2.982-.926 5.833-2.678 8.245a14.13 14.13 0 0 1-3.14 3.14zm1.64.708c.808-.661 1.547-1.4 2.208-2.209l2.217 2.217a18.964 18.964 0 0 1-2.21 2.209l-2.216-2.217zM37.98 37.98a1.552 1.552 0 0 1-1.105.458c-.417 0-.81-.163-1.105-.458l-6.937-6.937a20.53 20.53 0 0 0 2.21-2.21l6.937 6.938c.295.295.458.687.458 1.104 0 .417-.163.81-.458 1.105z"/>
        <path fill-rule="nonzero" d="M15.625 3.125c-6.893 0-12.5 5.607-12.5 12.5s5.607 12.5 12.5 12.5 12.5-5.607 12.5-12.5-5.607-12.5-12.5-12.5zm0 23.438c-6.03 0-10.938-4.907-10.938-10.938 0-6.03 4.907-10.938 10.938-10.938 6.03 0 10.938 4.907 10.938 10.938 0 6.03-4.907 10.938-10.938 10.938z"/>
        <path d="M24.38 12.271a9.375 9.375 0 0 0-3.387-4.329 9.309 9.309 0 0 0-5.368-1.692.781.781 0 0 0 0 1.563c3.21 0 6.143 2.017 7.297 5.019a.781.781 0 1 0 1.458-.56z"/>
    </g>
</svg>
