<svg xmlns="http://www.w3.org/2000/svg" width="40" height="40" viewBox="0 0 40 40">
    <path fill="none" fill-rule="evenodd" stroke="#4B4B4B" stroke-width="2" d="M38.419 17.426a2.067 2.067 0 0 0 .484-2.07c-.228-.732-.806-1.24-1.512-1.347l-9.685-1.47a2.27 2.27 0 0 1-1.707-1.284l-4.33-9.16C21.346 1.414 20.709 1 20 1c-.708 0-1.345.413-1.667 1.096l-4.33 9.16a2.272 2.272 0 0 1-1.71 1.285L2.609 14.01c-.705.106-1.283.615-1.51 1.346a2.067 2.067 0 0 0 .483 2.071l7.008 7.13a2.36 2.36 0 0 1 .639 2.033L7.574 36.66c-.1.606.048 1.18.418 1.637.558.692 1.52.893 2.276.479l8.663-4.754a2.25 2.25 0 0 1 2.14 0l8.663 4.754c.274.15.558.225.853.225.54 0 1.058-.253 1.423-.706.369-.455.517-1.03.416-1.636L30.772 26.59a2.36 2.36 0 0 1 .64-2.033l7.007-7.13z"/>
</svg>
